<svg xmlns="http://www.w3.org/2000/svg" xmlns:xlink="http://www.w3.org/1999/xlink" viewBox="0 0 225.27 84.7"><defs><style>.cls-1,.cls-6{fill:#22235b;}.cls-1{stroke:#22235b;}.cls-1,.cls-2{stroke-miterlimit:10;stroke-width:4.95px;}.cls-2{fill:#525ba6;stroke:#525ba6;}.cls-3{fill:url(#linear-gradient);}.cls-4{fill:#3e55a5;}.cls-5{fill:#6787c4;}.cls-7{fill:#525aa6;}</style><linearGradient id="linear-gradient" x1="3996.53" y1="23.12" x2="4071.8" y2="23.12" gradientTransform="matrix(-1, 0, 0, 1, 4071.8, 0)" gradientUnits="userSpaceOnUse"><stop offset="0" stop-color="#60c7c9"/><stop offset="0.18" stop-color="#60c4c8"/><stop offset="0.34" stop-color="#60b9c4"/><stop offset="0.49" stop-color="#61a7be"/><stop offset="0.63" stop-color="#628eb5"/><stop offset="0.77" stop-color="#636ea9"/><stop offset="0.9" stop-color="#64469b"/><stop offset="0.94" stop-color="#643b97"/></linearGradient></defs><title>Uniti-MasterBrand-Tricolor-Horizontal</title><g id="Layer_2" data-name="Layer 2"><g id="Layer_1-2" data-name="Layer 1"><path class="cls-1" d="M137.94,46.56V79.35a2.32,2.32,0,0,1-4.63,0V46.56a14.67,14.67,0,0,0-4.76-10.77,16.68,16.68,0,0,0-11.46-4.43,17,17,0,0,0-11.58,4.43,14.39,14.39,0,0,0-4.63,9l-.13,2.39V79.35a2.32,2.32,0,0,1-4.63,0V46.56l.12-17.35a2.33,2.33,0,0,1,4.64,0v5a15.71,15.71,0,0,1,1.41-1.43,21.3,21.3,0,0,1,14.8-5.75,21.74,21.74,0,0,1,14.8,5.75A18.75,18.75,0,0,1,137.94,46.56Z"/><path class="cls-1" d="M157,7.51A4.62,4.62,0,0,1,161.8,12a4.8,4.8,0,0,1-9.58,0A4.62,4.62,0,0,1,157,7.51Zm-2.08,21.7a2.35,2.35,0,0,1,2.44-2.16,2.27,2.27,0,0,1,2.45,2.16v50a2.29,2.29,0,0,1-2.45,2.28,2.37,2.37,0,0,1-2.44-2.28Z"/><path class="cls-1" d="M199.46,77.2a2.16,2.16,0,1,1,0,4.31A16.83,16.83,0,0,1,188,77.32a13.89,13.89,0,0,1-4.76-10.41V34.83h-6.05a2.16,2.16,0,1,1,0-4.31h6.05v-17a2.32,2.32,0,0,1,4.63,0v17h11.59a2.16,2.16,0,1,1,0,4.3H187.87V66.91a9.9,9.9,0,0,0,3.35,7.3A12.43,12.43,0,0,0,199.46,77.2Z"/><path class="cls-2" d="M218,7.51A4.62,4.62,0,0,1,222.79,12a4.8,4.8,0,0,1-9.58,0A4.62,4.62,0,0,1,218,7.51Z"/><path class="cls-1" d="M216.18,29.21a2.35,2.35,0,0,1,2.45-2.16,2.26,2.26,0,0,1,2.44,2.16v50a2.28,2.28,0,0,1-2.44,2.28,2.37,2.37,0,0,1-2.45-2.28Z"/><path class="cls-3" d="M2.78,23.17c.24,0,.47-.06.71-.09C.82,23.13-2.45,23.16,2.78,23.17Z"/><path class="cls-4" d="M42,.53c-.08-.18-.19-.35-.28-.53V.7C41.76.64,41.86.6,42,.53Z"/><path class="cls-5" d="M81.79,30.19V53A18.56,18.56,0,0,1,65,71.31a7.84,7.84,0,0,1-1,0l-.31,0a5.12,5.12,0,0,1-.56,0H45.88a5.19,5.19,0,0,1-5.23-5.13A18.14,18.14,0,0,0,45.9,79.05a6.7,6.7,0,0,0,5.54,5.56,7.11,7.11,0,0,0,1.14.09H63.05A18.73,18.73,0,0,0,81.23,70.83a18.32,18.32,0,0,0,.57-4.53V30.59C81.8,30.46,81.8,30.32,81.79,30.19Z"/><path class="cls-6" d="M65,71.31A18.56,18.56,0,0,0,81.79,53V30.19a6.77,6.77,0,0,0-13.51.4h0V66.3a5.17,5.17,0,0,1-4.36,5.06A7.84,7.84,0,0,0,65,71.31Z"/><path class="cls-7" d="M40.65,66.3V30.59h0a6.76,6.76,0,0,0-13.52,0V66.3A18.6,18.6,0,0,0,45.88,84.7H56.35a7.11,7.11,0,0,0,1.14-.09A18.55,18.55,0,0,1,40.65,66.3Z"/></g></g></svg>