<svg xmlns="http://www.w3.org/2000/svg" viewBox="0 0 90 100"><defs><style>.cls-1{fill:#6787c4;}.cls-2{fill:#22235b;}.cls-3{fill:#525aa6;}</style></defs><title>Uniti-LogoSymbol-Tricolor</title><g id="Layer_2" data-name="Layer 2"><g id="Layer_1-2" data-name="Layer 1"><path class="cls-1" d="M90,10.26V47.82C90,63.47,77.81,76.39,62.27,78a11,11,0,0,1-1.71.08c-.17,0-.34.06-.51.07a9.08,9.08,0,0,1-.91.05H30.86a8.53,8.53,0,0,1-8.6-8.44,29.92,29.92,0,0,0,8.64,21A11,11,0,0,0,40,99.84a11.51,11.51,0,0,0,1.87.16H59.14A30.81,30.81,0,0,0,89.05,77.16a29.6,29.6,0,0,0,1-7.45V10.92C90,10.7,90,10.48,90,10.26Z"/><path class="cls-2" d="M62.27,78C77.81,76.39,90,63.47,90,47.82V10.26a11.14,11.14,0,0,0-22.24.66h0V69.71A8.5,8.5,0,0,1,60.56,78,11,11,0,0,0,62.27,78Z"/><path class="cls-3" d="M22.26,69.71V10.92h0A11,11,0,0,0,11.13,0,11,11,0,0,0,0,10.92V69.71C0,86.41,13.84,100,30.86,100H48.1A11.51,11.51,0,0,0,50,99.84C34.43,98.29,22.26,85.37,22.26,69.71Z"/></g></g></svg>