<svg xmlns="http://www.w3.org/2000/svg" viewBox="0 0 198.65 80.35"><defs><style>.cls-1,.cls-2{fill:#fff;stroke-miterlimit:10;}.cls-1{stroke:#fff;stroke-width:4.95px;}.cls-2{stroke:#24245b;}</style></defs><title>Uniti-MasterBrand-White-Horizontal</title><g id="Layer_2" data-name="Layer 2"><g id="Layer_1-2" data-name="Layer 1"><path class="cls-1" d="M111.33,41.53V74.32a2.33,2.33,0,0,1-4.64,0V41.53a14.67,14.67,0,0,0-4.76-10.77,16.63,16.63,0,0,0-11.45-4.43,17,17,0,0,0-11.59,4.43,14.42,14.42,0,0,0-4.63,9l-.13,2.4V74.32a2.32,2.32,0,0,1-4.63,0V41.53l.13-17.36a2.32,2.32,0,0,1,4.63,0v5a13.64,13.64,0,0,1,1.42-1.43A21.24,21.24,0,0,1,90.48,22a21.71,21.71,0,0,1,14.8,5.75A18.77,18.77,0,0,1,111.33,41.53Z"/><path class="cls-1" d="M130.4,2.47a4.64,4.64,0,0,1,4.79,4.46,4.8,4.8,0,0,1-9.58,0A4.63,4.63,0,0,1,130.4,2.47Zm-2.09,21.7A2.35,2.35,0,0,1,130.76,22a2.27,2.27,0,0,1,2.44,2.15v50a2.28,2.28,0,0,1-2.44,2.27,2.36,2.36,0,0,1-2.45-2.27Z"/><path class="cls-1" d="M172.84,72.17a2.16,2.16,0,1,1,0,4.3,16.82,16.82,0,0,1-11.45-4.18,13.94,13.94,0,0,1-4.77-10.42V29.8h-6a2.16,2.16,0,1,1,0-4.31h6V8.55a2.33,2.33,0,0,1,4.64,0V25.49h11.58a2.32,2.32,0,0,1,2.32,2.16,2.32,2.32,0,0,1-2.32,2.15H161.26V61.87a9.86,9.86,0,0,0,3.34,7.3A12.39,12.39,0,0,0,172.84,72.17Z"/><path class="cls-1" d="M191.39,2.47a4.64,4.64,0,0,1,4.79,4.46,4.8,4.8,0,0,1-9.58,0A4.63,4.63,0,0,1,191.39,2.47Z"/><path class="cls-1" d="M189.57,24.17A2.35,2.35,0,0,1,192,22a2.27,2.27,0,0,1,2.45,2.15v50A2.28,2.28,0,0,1,192,76.47a2.36,2.36,0,0,1-2.44-2.27Z"/><path class="cls-2" d="M55.16,25.33V48.15a18.55,18.55,0,0,1-16.83,18.3,6,6,0,0,1-1,0l-.31,0a5.07,5.07,0,0,1-.55,0H19.25A5.19,5.19,0,0,1,14,61.45,18.18,18.18,0,0,0,19.27,74.2a6.69,6.69,0,0,0,5.55,5.55,6.09,6.09,0,0,0,1.13.1H36.43A18.72,18.72,0,0,0,54.6,66a18.23,18.23,0,0,0,.57-4.52V25.74C55.17,25.6,55.17,25.47,55.16,25.33Z"/><path class="cls-2" d="M38.33,66.45a18.55,18.55,0,0,0,16.83-18.3V25.33a6.77,6.77,0,0,0-13.51.41h0V61.45a5.15,5.15,0,0,1-4.36,5A6,6,0,0,0,38.33,66.45Z"/><path class="cls-2" d="M14,61.45V25.74h0A6.69,6.69,0,0,0,7.26,19.1,6.7,6.7,0,0,0,.5,25.74V61.45a18.6,18.6,0,0,0,18.75,18.4H29.72a6.12,6.12,0,0,0,1.14-.1A18.56,18.56,0,0,1,14,61.45Z"/></g></g></svg>