<svg xmlns="http://www.w3.org/2000/svg" viewBox="0 0 92 102.04"><defs><style>.cls-1{fill:none;stroke:#fff;stroke-miterlimit:10;stroke-width:2px;}</style></defs><title>Uniti-LogoSymbol-White-Outline</title><g id="Layer_2" data-name="Layer 2"><g id="Layer_1-2" data-name="Layer 1"><path class="cls-1" d="M91,11.26V48.82C91,64.47,78.81,77.39,63.27,79a11,11,0,0,1-1.71.08c-.17,0-.34.06-.51.07a9.08,9.08,0,0,1-.91.05H31.86a8.53,8.53,0,0,1-8.6-8.44,29.92,29.92,0,0,0,8.64,21c4,4.3,11.32,8.51,16,9.3.61.1-5.67,0-5,0H60.14A30.81,30.81,0,0,0,90.05,78.16a29.6,29.6,0,0,0,1-7.45V11.92C91,11.7,91,11.48,91,11.26Z"/><path class="cls-1" d="M63.27,79C78.81,77.39,91,64.47,91,48.82V11.26a11.14,11.14,0,0,0-22.24.66h0V70.71A8.5,8.5,0,0,1,61.56,79,11,11,0,0,0,63.27,79Z"/><path class="cls-1" d="M23.26,70.71V11.92h0A11,11,0,0,0,12.13,1,11,11,0,0,0,1,11.92V70.71C1,87.41,14.84,101,31.86,101H49.1a11.51,11.51,0,0,0,1.87-.16C35.43,99.29,23.26,86.37,23.26,70.71Z"/></g></g></svg>